<svg width="16" height="17" viewBox="0 0 16 17" fill="none" xmlns="http://www.w3.org/2000/svg">
<path d="M4.62373 0.326172C5.09286 0.326172 5.51578 0.388761 5.90672 0.525318C6.29055 0.661876 6.62107 0.878092 6.89472 1.17397C7.16838 1.47553 7.38162 1.86813 7.53444 2.36885C7.68371 2.86956 7.7619 3.48976 7.7619 4.21806C7.7619 5.00327 7.64817 5.66899 7.42427 6.20384C7.19681 6.73869 6.86629 7.16543 6.42204 7.50683C7.02622 7.78563 7.47402 8.27496 7.77256 8.96913C8.07109 9.67468 8.21325 10.5168 8.21325 11.4898C8.21325 12.292 8.12796 12.9748 7.93959 13.5495C7.75479 14.1356 7.49535 14.6192 7.16483 14.989C6.84497 15.3589 6.46469 15.6263 6.05243 15.8084C5.64728 15.9848 5.21725 16.0815 4.78011 16.0815H0V0.331861H4.62373V0.326172ZM11.2946 13.2991C11.586 13.76 12.0089 13.9876 12.5562 13.9876C12.9507 13.9876 13.2883 13.8283 13.5727 13.5097C13.857 13.2024 14.024 12.861 14.0951 12.5082H15.8188C15.5522 13.8738 15.1222 14.8525 14.5536 15.4442C13.9849 16.0417 13.299 16.3262 12.5029 16.3262C11.9414 16.3262 11.4438 16.1896 10.9889 15.8994C10.5411 15.6149 10.1608 15.2053 9.84453 14.6818C9.53533 14.1583 9.29366 13.5324 9.12663 12.7927C8.95603 12.0531 8.87785 11.2451 8.87785 10.3688C8.87785 9.50967 8.97025 8.72446 9.14795 7.99047C9.32565 7.24509 9.57443 6.62489 9.89429 6.08435C10.2248 5.53812 10.6015 5.12845 11.0529 4.80981C11.5007 4.49118 11.984 4.34893 12.5313 4.34893C13.1391 4.34893 13.658 4.52532 14.1164 4.90654C14.5642 5.2707 14.9303 5.78279 15.2217 6.39729C15.5167 7.02318 15.7228 7.7458 15.8508 8.55946C15.9787 9.36173 16.0178 10.2038 15.9929 11.0972H10.8574C10.8574 11.9962 11.0458 12.8383 11.3301 13.2991L11.2768 13.3333L11.2946 13.2991ZM4.46735 13.356C4.67704 13.356 4.87962 13.3219 5.07153 13.2536C5.26345 13.191 5.43759 13.0772 5.57975 12.935C5.72191 12.7927 5.83919 12.5822 5.92804 12.3148C6.01334 12.0587 6.05243 11.706 6.05243 11.2906C6.05243 10.4883 5.90672 9.91365 5.62595 9.56657C5.33808 9.22518 4.96847 9.05448 4.50289 9.05448H2.16082V13.3788H4.46735V13.3447V13.356ZM13.5371 7.32475C13.299 6.90939 12.9081 6.69317 12.4318 6.69317C12.1226 6.69317 11.8632 6.77283 11.6571 6.94922C11.458 7.10853 11.291 7.32475 11.1631 7.5808C11.0387 7.83684 10.9534 8.09289 10.9036 8.38307C10.8539 8.66188 10.8219 8.91792 10.8148 9.13983H13.9885C13.9423 8.33755 13.7681 7.75149 13.5371 7.33613V7.34751V7.32475ZM4.34652 6.67041C4.73035 6.67041 5.04665 6.52816 5.29543 6.23229C5.54421 5.94779 5.66505 5.45846 5.66505 4.80412C5.66505 4.43997 5.61884 4.13841 5.54421 3.90512C5.45536 3.66614 5.34519 3.48976 5.21014 3.35889C5.06798 3.22802 4.90805 3.13129 4.7268 3.08577C4.5491 3.02887 4.35363 3.00611 4.16527 3.00611H2.15371V6.6761H4.34652V6.67041ZM10.4096 1.3788H14.3865V2.92646H10.4096V1.36173V1.3788Z" fill="#777FEB"/>
</svg>
