<svg width="84" height="84" viewBox="0 0 84 84" fill="none" xmlns="http://www.w3.org/2000/svg">
<path d="M13.062 23.436C13.8352 23.436 14.462 22.8092 14.462 22.036C14.462 21.2628 13.8352 20.636 13.062 20.636C12.2888 20.636 11.662 21.2628 11.662 22.036C11.662 22.8092 12.2888 23.436 13.062 23.436Z" fill="#777FEB"/>
<path d="M22.4 23.436C23.1732 23.436 23.8 22.8092 23.8 22.036C23.8 21.2628 23.1732 20.636 22.4 20.636C21.6268 20.636 21 21.2628 21 22.036C21 22.8092 21.6268 23.436 22.4 23.436Z" fill="#777FEB"/>
<path d="M17.738 23.436C18.5112 23.436 19.138 22.8092 19.138 22.036C19.138 21.2628 18.5112 20.636 17.738 20.636C16.9648 20.636 16.338 21.2628 16.338 22.036C16.338 22.8092 16.9648 23.436 17.738 23.436Z" fill="#777FEB"/>
<path d="M28 42.35L32.2 38.15C32.4636 37.8864 32.6117 37.5288 32.6117 37.156C32.6117 36.7832 32.4636 36.4256 32.2 36.162C31.9363 35.8984 31.5788 35.7503 31.206 35.7503C30.8332 35.7503 30.4756 35.8984 30.212 36.162L25.004 41.384C24.7432 41.6463 24.5969 42.0011 24.5969 42.371C24.5969 42.7409 24.7432 43.0957 25.004 43.358L30.212 48.58C30.3421 48.7112 30.497 48.8154 30.6676 48.8864C30.8382 48.9575 31.0212 48.9941 31.206 48.9941C31.3908 48.9941 31.5738 48.9575 31.7444 48.8864C31.915 48.8154 32.0698 48.7112 32.2 48.58C32.4607 48.3177 32.6071 47.9629 32.6071 47.593C32.6071 47.2231 32.4607 46.8683 32.2 46.606L28 42.35Z" fill="#777FEB"/>
<path d="M48.048 48.552C48.3103 48.8128 48.6651 48.9591 49.035 48.9591C49.4049 48.9591 49.7597 48.8128 50.022 48.552L55.244 43.4C55.5048 43.1377 55.6511 42.7829 55.6511 42.413C55.6511 42.0431 55.5048 41.6883 55.244 41.426L50.022 36.204C49.7584 35.9422 49.4016 35.7959 49.0301 35.7972C48.6585 35.7985 48.3028 35.9474 48.041 36.211C47.7792 36.4746 47.6329 36.8314 47.6342 37.203C47.6355 37.5745 47.7844 37.9302 48.048 38.192L52.248 42.392L48.048 46.592C47.7915 46.8537 47.6478 47.2055 47.6478 47.572C47.6478 47.9385 47.7915 48.2903 48.048 48.552Z" fill="#777FEB"/>
<path d="M43.4 36.61C43.2402 36.5174 43.0637 36.4574 42.8806 36.4333C42.6975 36.4093 42.5115 36.4217 42.3332 36.4698C42.1549 36.518 41.9879 36.6009 41.8418 36.7139C41.6957 36.8268 41.5735 36.9676 41.482 37.128L36.316 46.2C36.2147 46.3593 36.1467 46.5375 36.116 46.7238C36.0854 46.9102 36.0928 47.1007 36.1377 47.2841C36.1826 47.4675 36.2641 47.6399 36.3774 47.791C36.4907 47.9421 36.6334 48.0687 36.7969 48.1631C36.9603 48.2576 37.1412 48.3181 37.3287 48.3409C37.5161 48.3636 37.7062 48.3482 37.8875 48.2956C38.0689 48.243 38.2377 48.1543 38.3839 48.0347C38.53 47.9152 38.6505 47.7673 38.738 47.6L43.96 38.57C44.0577 38.406 44.1208 38.2237 44.1454 38.0343C44.1701 37.845 44.1557 37.6526 44.1033 37.4691C44.0508 37.2855 43.9614 37.1146 43.8404 36.9668C43.7195 36.8191 43.5696 36.6977 43.4 36.61Z" fill="#777FEB"/>
<path d="M78.204 56C78.1214 55.9994 78.041 55.9736 77.9734 55.926C77.9059 55.8785 77.8545 55.8115 77.826 55.734C77.2689 54.2686 76.4795 52.9024 75.488 51.688C75.441 51.6201 75.4159 51.5395 75.4159 51.457C75.4159 51.3745 75.441 51.2939 75.488 51.226C75.9144 50.487 76.03 49.6089 75.8095 48.7847C75.589 47.9604 75.0504 47.2574 74.312 46.83L73.262 46.2V20.636C73.262 19.5221 72.8195 18.4538 72.0318 17.6662C71.2442 16.8785 70.1759 16.436 69.062 16.436H11.2C10.0861 16.436 9.0178 16.8785 8.23015 17.6662C7.4425 18.4538 7 19.5221 7 20.636V56.112C7.00368 56.976 7.34854 57.8036 7.95949 58.4145C8.57044 59.0255 9.398 59.3703 10.262 59.374H29.4L28 64.554H26.138C24.7744 64.5549 23.4509 65.0156 22.3814 65.8615C21.312 66.7074 20.5589 67.8893 20.244 69.216H16.8C16.4287 69.216 16.0726 69.3635 15.8101 69.6261C15.5475 69.8886 15.4 70.2447 15.4 70.616C15.4 70.9873 15.5475 71.3434 15.8101 71.6059C16.0726 71.8685 16.4287 72.016 16.8 72.016H52.458C52.4343 72.3505 52.4674 72.6866 52.556 73.01C52.661 73.4207 52.8478 73.806 53.1052 74.1427C53.3626 74.4795 53.6853 74.7609 54.054 74.97L57.008 76.678C57.3748 76.8885 57.7794 77.0248 58.1989 77.0789C58.6183 77.1331 59.0443 77.1041 59.4525 76.9936C59.8607 76.8831 60.2432 76.6932 60.578 76.4349C60.9128 76.1766 61.1935 75.8548 61.404 75.488C61.4494 75.4166 61.5146 75.36 61.5917 75.3252C61.6688 75.2903 61.7544 75.2788 61.838 75.292C63.3759 75.558 64.9481 75.558 66.486 75.292C66.5712 75.2782 66.6585 75.2909 66.7361 75.3285C66.8138 75.3661 66.878 75.4267 66.92 75.502C67.2053 75.9906 67.6144 76.3953 68.106 76.6755C68.5975 76.9557 69.1542 77.1014 69.72 77.098C70.2844 77.1035 70.8402 76.9585 71.33 76.678L74.284 74.97C74.6507 74.7584 74.972 74.4763 75.2291 74.1398C75.4862 73.8034 75.6741 73.4194 75.782 73.01C75.8935 72.603 75.9224 72.1778 75.8671 71.7595C75.8118 71.3411 75.6734 70.938 75.46 70.574C75.4118 70.504 75.3861 70.421 75.3861 70.336C75.3861 70.251 75.4118 70.168 75.46 70.098C76.4484 68.8866 77.2376 67.5256 77.798 66.066C77.8247 65.9873 77.8757 65.9192 77.9436 65.8714C78.0116 65.8236 78.0929 65.7986 78.176 65.8C79.0289 65.7963 79.8457 65.4559 80.4488 64.8528C81.0519 64.2497 81.3923 63.4329 81.396 62.58V59.164C81.3814 58.3246 81.0396 57.524 80.4433 56.933C79.847 56.342 79.0435 56.0072 78.204 56ZM9.8 20.636C9.8 20.2647 9.9475 19.9086 10.2101 19.646C10.4726 19.3835 10.8287 19.236 11.2 19.236H69.062C69.4333 19.236 69.7894 19.3835 70.0519 19.646C70.3145 19.9086 70.462 20.2647 70.462 20.636V24.836H9.8V20.636ZM10.262 56.574C10.2013 56.574 10.1413 56.562 10.0852 56.5388C10.0291 56.5156 9.97822 56.4816 9.93532 56.4387C9.89242 56.3958 9.85839 56.3449 9.83517 56.2888C9.81195 56.2327 9.8 56.1727 9.8 56.112V27.636H70.462V44.8C69.7995 44.624 69.0981 44.6651 68.4606 44.917C67.8231 45.169 67.2832 45.6186 66.92 46.2C66.8764 46.2691 66.813 46.3234 66.7381 46.3558C66.6632 46.3883 66.5802 46.3974 66.5 46.382C64.9609 46.1299 63.3911 46.1299 61.852 46.382C61.7718 46.3995 61.688 46.3913 61.6127 46.3587C61.5373 46.326 61.4741 46.2705 61.432 46.2C61.2217 45.833 60.9408 45.5112 60.6056 45.2532C60.2704 44.9952 59.8875 44.8061 59.4788 44.6968C59.0702 44.5875 58.644 44.5601 58.2247 44.6163C57.8055 44.6724 57.4015 44.811 57.036 45.024L54.082 46.732C53.7142 46.9389 53.392 47.2179 53.1346 47.5523C52.8772 47.8866 52.6899 48.2695 52.584 48.678C52.3601 49.5034 52.4708 50.3837 52.892 51.128C52.9431 51.1942 52.9708 51.2754 52.9708 51.359C52.9708 51.4426 52.9431 51.5238 52.892 51.59C51.9005 52.8044 51.1111 54.1706 50.554 55.636C50.5255 55.7135 50.4741 55.7805 50.4065 55.828C50.339 55.8756 50.2586 55.9014 50.176 55.902C49.4903 55.903 48.823 56.1238 48.272 56.532L10.262 56.574ZM47.6 64.554H30.8L32.2 59.374H46.9V62.58C46.909 63.2972 47.1551 63.9914 47.6 64.554ZM26.152 67.354H51.072C51.392 67.9994 51.7569 68.6216 52.164 69.216H23.198C23.4623 68.6598 23.8787 68.1897 24.399 67.8602C24.9192 67.5307 25.5222 67.3552 26.138 67.354H26.152ZM78.624 62.58C78.624 62.6914 78.5798 62.7982 78.501 62.877C78.4222 62.9558 78.3154 63 78.204 63C77.5519 63.0016 76.9155 63.2003 76.3783 63.5701C75.8411 63.9399 75.4283 64.4634 75.194 65.072C74.7465 66.2524 74.1132 67.3536 73.318 68.334C72.908 68.8405 72.6605 69.459 72.6081 70.1085C72.5556 70.7581 72.7006 71.4083 73.024 71.974C73.0465 72.0222 73.0582 72.0748 73.0582 72.128C73.0582 72.1812 73.0465 72.2338 73.024 72.282C73.0118 72.3376 72.9881 72.39 72.9543 72.4358C72.9205 72.4817 72.8775 72.5199 72.828 72.548L69.916 74.2C69.8674 74.227 69.8138 74.2442 69.7585 74.2504C69.7032 74.2565 69.6473 74.2517 69.5939 74.2361C69.5405 74.2204 69.4907 74.1943 69.4475 74.1593C69.4042 74.1243 69.3684 74.081 69.342 74.032C69.011 73.4678 68.5167 73.0172 67.9243 72.7398C67.3319 72.4624 66.6693 72.3711 66.024 72.478C64.7915 72.6879 63.5325 72.6879 62.3 72.478C61.6532 72.3724 60.9896 72.4658 60.397 72.7458C59.8045 73.0258 59.311 73.4792 58.982 74.046C58.9239 74.1399 58.8321 74.208 58.7255 74.2367C58.6189 74.2653 58.5053 74.2522 58.408 74.2L55.454 72.492C55.4045 72.4639 55.3615 72.4257 55.3277 72.3798C55.2939 72.334 55.2702 72.2816 55.258 72.226C55.2355 72.1778 55.2238 72.1252 55.2238 72.072C55.2238 72.0188 55.2355 71.9662 55.258 71.918C55.5777 71.3512 55.7205 70.7017 55.6681 70.053C55.6157 69.4043 55.3705 68.7862 54.964 68.278C54.1617 67.3001 53.5234 66.1984 53.074 65.016C52.8392 64.4234 52.4323 63.9147 51.9058 63.5554C51.3794 63.1961 50.7574 63.0027 50.12 63C50.0086 63 49.9018 62.9558 49.823 62.877C49.7442 62.7982 49.7 62.6914 49.7 62.58V59.164C49.698 59.1083 49.7076 59.0528 49.728 59.001C49.7484 58.9491 49.7793 58.9021 49.8187 58.8627C49.8581 58.8233 49.9051 58.7924 49.957 58.772C50.0088 58.7516 50.0643 58.742 50.12 58.744C50.7702 58.7415 51.4044 58.5422 51.9392 58.1724C52.4739 57.8025 52.8842 57.2795 53.116 56.672C53.5622 55.4881 54.2008 54.3859 55.006 53.41C55.4125 52.9018 55.6577 52.2837 55.7101 51.635C55.7625 50.9863 55.6197 50.3368 55.3 49.77C55.2772 49.7194 55.2654 49.6645 55.2654 49.609C55.2654 49.5535 55.2772 49.4986 55.3 49.448C55.3114 49.3939 55.3349 49.343 55.3689 49.2994C55.4029 49.2557 55.4463 49.2203 55.496 49.196L58.45 47.488C58.5187 47.4689 58.5913 47.4689 58.66 47.488C58.7301 47.4889 58.7988 47.5073 58.8599 47.5415C58.921 47.5757 58.9726 47.6247 59.01 47.684C59.3405 48.2494 59.8342 48.7017 60.4263 48.9815C61.0185 49.2613 61.6813 49.3556 62.328 49.252C63.5605 49.0421 64.8195 49.0421 66.052 49.252C66.703 49.3399 67.3653 49.2292 67.9523 48.9345C68.5393 48.6397 69.0237 48.1746 69.342 47.6C69.3694 47.5538 69.4056 47.5135 69.4487 47.4815C69.4917 47.4494 69.5407 47.4262 69.5928 47.4131C69.6449 47.4001 69.699 47.3976 69.7521 47.4056C69.8052 47.4136 69.8561 47.4321 69.902 47.46L72.856 49.168C72.9057 49.1923 72.9491 49.2277 72.9831 49.2714C73.0171 49.315 73.0406 49.3659 73.052 49.42C73.0748 49.4706 73.0866 49.5255 73.0866 49.581C73.0866 49.6365 73.0748 49.6914 73.052 49.742C72.7298 50.3056 72.5854 50.9534 72.6379 51.6005C72.6903 52.2476 72.9372 52.8637 73.346 53.368C74.1415 54.3534 74.7747 55.4592 75.222 56.644C75.4427 57.2628 75.8458 57.8001 76.3782 58.185C76.9106 58.5699 77.5472 58.7844 78.204 58.8C78.2597 58.798 78.3152 58.8076 78.367 58.828C78.4189 58.8484 78.4659 58.8793 78.5053 58.9187C78.5447 58.9581 78.5756 59.0051 78.596 59.057C78.6164 59.1088 78.626 59.1643 78.624 59.22V62.58Z" fill="#777FEB"/>
<path d="M64.162 54.516C62.9049 54.516 61.676 54.8888 60.6308 55.5872C59.5855 56.2856 58.7709 57.2783 58.2898 58.4397C57.8087 59.6011 57.6829 60.8791 57.9281 62.112C58.1733 63.3449 58.7787 64.4775 59.6676 65.3664C60.5565 66.2553 61.689 66.8606 62.922 67.1059C64.1549 67.3511 65.4329 67.2252 66.5943 66.7442C67.7557 66.2631 68.7484 65.4484 69.4468 64.4032C70.1452 63.358 70.518 62.1291 70.518 60.872C70.518 59.1863 69.8483 57.5696 68.6563 56.3776C67.4644 55.1856 65.8477 54.516 64.162 54.516ZM64.162 64.428C63.4587 64.428 62.7711 64.2194 62.1864 63.8287C61.6016 63.438 61.1458 62.8826 60.8767 62.2328C60.6075 61.583 60.5371 60.8681 60.6743 60.1783C60.8115 59.4885 61.1502 58.8548 61.6475 58.3575C62.1448 57.8602 62.7784 57.5215 63.4682 57.3843C64.158 57.2471 64.873 57.3175 65.5228 57.5867C66.1726 57.8558 66.7279 58.3116 67.1187 58.8964C67.5094 59.4812 67.718 60.1687 67.718 60.872C67.7106 61.8103 67.3327 62.7076 66.6666 63.3684C66.0005 64.0292 65.1003 64.4 64.162 64.4V64.428Z" fill="#777FEB"/>
</svg>
