<svg width="16" height="17" viewBox="0 0 16 17" fill="none" xmlns="http://www.w3.org/2000/svg">
<path d="M8 16.3262C3.5875 16.3262 0 12.7407 0 8.3293C0 3.91162 3.5875 0.326172 8 0.326172C12.4125 0.326172 16 3.91162 16 8.32304C16 12.7345 12.4125 16.3262 8 16.3262ZM14.7437 9.41808C14.5125 9.34299 12.6313 8.78609 10.4875 9.12398C11.3813 11.5769 11.7437 13.5792 11.8125 13.9922C13.35 12.9597 14.4437 11.3203 14.7437 9.41808ZM10.6687 14.6242C10.5687 14.0235 10.1687 11.9335 9.2125 9.44311C9.2 9.44936 9.18125 9.45562 9.16875 9.45562C5.3125 10.8009 3.93125 13.4728 3.80625 13.7231C4.9625 14.6242 6.41875 15.1623 8 15.1623C8.94375 15.1686 9.85 14.9746 10.6687 14.6242ZM2.925 12.9034C3.08125 12.6406 4.95625 9.53697 8.48125 8.39187C8.56875 8.36059 8.6625 8.33556 8.75 8.31053C8.58125 7.92257 8.39375 7.53462 8.19375 7.15292C4.78125 8.17287 1.46875 8.12907 1.16875 8.12281C1.16875 8.19164 1.1625 8.26047 1.1625 8.3293C1.16875 10.0876 1.83125 11.6895 2.925 12.9034ZM1.3125 6.93392C1.61875 6.94017 4.43125 6.95269 7.63125 6.10169C6.5 4.08683 5.275 2.39735 5.1 2.15331C3.18125 3.05437 1.75625 4.81894 1.3125 6.93392ZM6.4 1.69027C6.5875 1.94056 7.83125 3.63004 8.95 5.68871C11.3813 4.77514 12.4062 3.39852 12.5312 3.22332C11.325 2.15331 9.7375 1.50255 8 1.50255C7.45 1.50255 6.9125 1.57138 6.4 1.69027ZM13.2875 4.01174C13.1438 4.20572 12 5.67619 9.475 6.70865C9.63125 7.03403 9.7875 7.36567 9.93125 7.69731C9.98125 7.8162 10.0312 7.93509 10.0813 8.04772C12.3563 7.75988 14.6125 8.22293 14.8375 8.26673C14.8187 6.65859 14.2438 5.1756 13.2875 4.01174Z" fill="#777FEB"/>
</svg>
