<svg width="16" height="17" viewBox="0 0 16 17" fill="none" xmlns="http://www.w3.org/2000/svg">
<path d="M5.33398 8.32617C5.33398 6.85347 6.52757 5.65929 8.00032 5.65929C9.47308 5.65929 10.6673 6.85347 10.6673 8.32617C10.6673 9.79887 9.47308 10.9931 8.00032 10.9931C6.52757 10.9931 5.33398 9.79887 5.33398 8.32617ZM3.89224 8.32617C3.89224 10.595 5.73141 12.4341 8.00032 12.4341C10.2692 12.4341 12.1084 10.595 12.1084 8.32617C12.1084 6.05735 10.2692 4.21826 8.00032 4.21826C5.73141 4.21826 3.89224 6.05735 3.89224 8.32617ZM11.311 4.05541C11.311 4.5853 11.7407 5.01567 12.2713 5.01567C12.8012 5.01567 13.2316 4.5853 13.2316 4.05541C13.2316 3.52553 12.8018 3.0958 12.2713 3.0958C11.7407 3.0958 11.311 3.52553 11.311 4.05541ZM4.76788 14.838C3.98788 14.8024 3.56396 14.6725 3.2822 14.5627C2.90868 14.4173 2.64243 14.2441 2.36197 13.9643C2.08215 13.6845 1.90832 13.4183 1.76356 13.0448C1.6537 12.763 1.52381 12.3391 1.48827 11.5591C1.44949 10.7158 1.44174 10.4625 1.44174 8.32617C1.44174 6.18982 1.45014 5.93716 1.48827 5.09322C1.52381 4.31325 1.65435 3.88998 1.76356 3.60759C1.90896 3.23409 2.08215 2.96785 2.36197 2.6874C2.64179 2.40759 2.90803 2.23376 3.2822 2.08902C3.56396 1.97916 3.98788 1.84927 4.76788 1.81373C5.61121 1.77496 5.86453 1.76721 8.00032 1.76721C10.1368 1.76721 10.3894 1.77561 11.2334 1.81373C12.0134 1.84927 12.4367 1.97981 12.7191 2.08902C13.0926 2.23376 13.3589 2.40759 13.6393 2.6874C13.9191 2.96721 14.0923 3.23409 14.2377 3.60759C14.3476 3.88934 14.4775 4.31325 14.513 5.09322C14.5518 5.93716 14.5596 6.18982 14.5596 8.32617C14.5596 10.4619 14.5518 10.7152 14.513 11.5591C14.4775 12.3391 14.3469 12.763 14.2377 13.0448C14.0923 13.4183 13.9191 13.6845 13.6393 13.9643C13.3595 14.2441 13.0926 14.4173 12.7191 14.5627C12.4373 14.6725 12.0134 14.8024 11.2334 14.838C10.3901 14.8767 10.1368 14.8845 8.00032 14.8845C5.86453 14.8845 5.61121 14.8767 4.76788 14.838ZM4.70197 0.374637C3.85024 0.413409 3.26863 0.548466 2.76005 0.746204C2.23402 0.950405 1.78812 1.22439 1.34287 1.66898C0.898259 2.11357 0.624258 2.55945 0.420049 3.08611C0.222303 3.59467 0.087241 4.17625 0.0484672 5.02795C0.00904722 5.88094 0 6.15364 0 8.32617C0 10.4987 0.00904722 10.7714 0.0484672 11.6244C0.087241 12.4761 0.222303 13.0577 0.420049 13.5662C0.624258 14.0922 0.897613 14.5388 1.34287 14.9834C1.78747 15.4279 2.23337 15.7013 2.76005 15.9061C3.26928 16.1039 3.85024 16.2389 4.70197 16.2777C5.55564 16.3165 5.8277 16.3262 8.00032 16.3262C10.1736 16.3262 10.4457 16.3171 11.2987 16.2777C12.1504 16.2389 12.732 16.1039 13.2406 15.9061C13.7666 15.7013 14.2125 15.4279 14.6578 14.9834C15.1024 14.5388 15.3757 14.0922 15.5806 13.5662C15.7783 13.0577 15.9141 12.4761 15.9522 11.6244C15.991 10.7708 16 10.4987 16 8.32617C16 6.15364 15.991 5.88094 15.9522 5.02795C15.9134 4.17625 15.7783 3.59467 15.5806 3.08611C15.3757 2.5601 15.1024 2.11422 14.6578 1.66898C14.2132 1.22439 13.7666 0.950405 13.2412 0.746204C12.732 0.548466 12.1504 0.412763 11.2993 0.374637C10.4463 0.335865 10.1736 0.326172 8.00097 0.326172C5.8277 0.326172 5.55564 0.335219 4.70197 0.374637Z" fill="#777FEB"/>
</svg>
