<svg width="16" height="17" viewBox="0 0 16 17" fill="none" xmlns="http://www.w3.org/2000/svg">
<path d="M1.90099 3.59284C1.90099 3.32617 1.84818 3.12617 1.68977 2.92617L0.211221 0.659505V0.326172H4.80528L8.39604 10.2595L11.5644 0.326172H16V0.659505L14.7327 2.19284C14.6271 2.32617 14.5743 2.45951 14.5743 2.65951V13.9928C14.5743 14.1928 14.6271 14.3262 14.7327 14.4595L16 15.9928V16.3262H9.66337V15.9928L10.9307 14.3928C11.0363 14.2595 11.0363 14.1928 11.0363 13.9262V4.79284L7.44554 16.2595H6.9703L2.85149 4.79284V12.5262C2.79868 12.8595 2.90429 13.1928 3.06271 13.3928L4.75248 15.9928V16.3262H0V15.9928L1.68977 13.3928C1.84818 13.1262 1.9538 12.8595 1.90099 12.5262V3.59284Z" fill="#777FEB"/>
</svg>
