<svg width="84" height="84" viewBox="0 0 84 84" fill="none" xmlns="http://www.w3.org/2000/svg">
<path d="M47.1898 76.0102C46.6423 75.4627 45.7575 75.4627 45.2102 76.0102C44.6628 76.5575 44.6628 77.4424 45.2102 77.9897L50.8102 83.5898C51.0832 83.8628 51.4417 84 51.8 84C52.1584 84 52.5168 83.8628 52.7898 83.5898C53.3372 83.0425 53.3372 82.1576 52.7898 81.6103L47.1898 76.0102Z" fill="#777FEB"/>
<path d="M60.1999 36.4001C64.0597 36.4001 67.2 33.2599 67.2 29.4C67.2 25.5401 64.0598 22.4 60.1999 22.4C56.3401 22.4 53.1999 25.5401 53.1999 29.4C53.1999 33.2599 56.3402 36.4001 60.1999 36.4001ZM60.1999 25.2C62.5155 25.2 64.3999 27.0844 64.3999 29.4C64.3999 31.7156 62.5155 33.6 60.1999 33.6C57.8844 33.6 55.9999 31.7156 55.9999 29.4C55.9999 27.0844 57.8844 25.2 60.1999 25.2Z" fill="#777FEB"/>
<path d="M42 67.2C41.2258 67.2 40.6001 67.8272 40.6001 68.6V72.2203L31.2103 81.6101C30.663 82.1576 30.663 83.0424 31.2103 83.5897C31.4833 83.8627 31.8418 83.9998 32.2001 83.9998C32.5586 83.9998 32.9169 83.8627 33.1899 83.5897L42.9898 73.7897C43.253 73.5279 43.4 73.1709 43.4 72.8V68.6C43.4 67.8272 42.7742 67.2 42 67.2Z" fill="#777FEB"/>
<path d="M82.6001 2.80005H43.3999V1.39995C43.3999 0.627211 42.7742 0 42 0C41.2258 0 40.6001 0.627211 40.6001 1.39995V2.79989H1.39995C0.625734 2.80005 0 3.42727 0 4.2V9.79994C0 10.5727 0.625734 11.1999 1.39995 11.1999H74.1999C74.9741 11.1999 75.5998 10.5727 75.5998 9.79994C75.5998 9.02721 74.9741 8.4 74.1999 8.4H2.79989V5.59994H81.2V8.4H79.8C79.0258 8.4 78.4001 9.02721 78.4001 9.79994V57.3999C78.4001 59.7155 76.5156 61.5999 74.2001 61.5999H9.79995C7.48437 61.5999 5.59995 59.7155 5.59995 57.3999V15.3999C5.59995 14.6272 4.97421 13.9999 4.2 13.9999C3.42579 13.9999 2.80005 14.6272 2.80005 15.3999V57.3999C2.80005 61.2596 5.94021 64.3999 9.80011 64.3999H74.2001C78.0598 64.3999 81.2001 61.2598 81.2001 57.3999V11.1999H82.6001C83.3743 11.1999 84 10.5727 84 9.79994V4.2C84 3.42727 83.3743 2.80005 82.6001 2.80005Z" fill="#777FEB"/>
<path d="M49.9899 45.2102C49.4424 44.6627 48.5576 44.6627 48.0103 45.2102C47.4628 45.7575 47.4628 46.6425 48.0103 47.1898L49.8205 49.0001L48.0103 50.8102C47.4628 51.3576 47.4628 52.2424 48.0103 52.7897C48.2833 53.0627 48.6418 53.1999 49.0001 53.1999C49.3585 53.1999 49.7169 53.0627 49.9899 52.7897L51.8001 50.9795L53.6104 52.7897C53.8834 53.0627 54.2419 53.1999 54.6002 53.1999C54.9587 53.1999 55.317 53.0627 55.59 52.7897C56.1374 52.2423 56.1374 51.3575 55.59 50.8102L53.7797 48.9999L55.59 47.1896C56.1374 46.6421 56.1374 45.7574 55.59 45.21C55.0427 44.6626 54.1577 44.6626 53.6104 45.21L51.8001 47.0203L49.9899 45.2102Z" fill="#777FEB"/>
<path d="M19.6588 45.0394C18.0026 45.6022 16.8 47.1562 16.8 49.0001C16.8 51.3156 18.6844 53.2001 21 53.2001C23.3156 53.2001 25.2 51.3156 25.2 49.0001C25.2 47.1983 24.0548 45.6709 22.4574 45.0758C23.037 37.1085 29.6884 30.8001 37.8 30.8001H45.6204L42.4101 34.0102C41.8628 34.5576 41.8628 35.4424 42.4101 35.9897C42.6831 36.2627 43.0416 36.3999 43.3999 36.3999C43.7584 36.3999 44.1167 36.2627 44.3897 35.9897L49.9884 30.3911C50.1186 30.2608 50.2208 30.1069 50.2922 29.9347C50.4336 29.5931 50.4336 29.2067 50.2922 28.8652C50.2208 28.6929 50.1186 28.539 49.9884 28.4102L44.3897 22.8103C43.8422 22.2628 42.9575 22.2628 42.4101 22.8103C41.8628 23.3576 41.8628 24.2425 42.4101 24.7898L45.6204 28.0001H37.8C28.1554 28.0001 20.2622 35.5446 19.6588 45.0394ZM21 50.4C20.2273 50.4 19.6 49.7715 19.6 49.0001C19.6 48.2286 20.2273 47.6001 21 47.6001C21.7727 47.6001 22.3999 48.2286 22.3999 49.0001C22.3999 49.7715 21.7727 50.4 21 50.4Z" fill="#777FEB"/>
<path d="M14.4102 27.5897C14.6832 27.8627 15.0417 27.9999 15.4 27.9999C15.7585 27.9999 16.1168 27.8627 16.3898 27.5897L18.2001 25.7795L20.0104 27.5897C20.2834 27.8627 20.6418 27.9999 21.0001 27.9999C21.3585 27.9999 21.7169 27.8627 21.9899 27.5897C22.5374 27.0422 22.5374 26.1575 21.9899 25.6101L20.1797 23.7999L21.9899 21.9896C22.5374 21.4421 22.5374 20.5573 21.9899 20.01C21.4425 19.4627 20.5577 19.4627 20.0104 20.01L18.2001 21.8203L16.3898 20.0102C15.8425 19.4629 14.9576 19.4629 14.4102 20.0102C13.8628 20.5577 13.8628 21.4425 14.4102 21.9898L16.2205 23.8L14.4102 25.6101C13.8628 26.1576 13.8628 27.0424 14.4102 27.5897Z" fill="#777FEB"/>
</svg>
