<svg width="16" height="17" viewBox="0 0 16 17" fill="none" xmlns="http://www.w3.org/2000/svg">
<path d="M16 2.21676C15.4133 2.54061 14.7769 2.75506 14.1156 2.85134C14.7947 2.35243 15.3138 1.56031 15.5591 0.615012C14.9262 1.07891 14.2222 1.42026 13.4756 1.5997C12.8747 0.816325 12.0213 0.326172 11.0791 0.326172C9.26578 0.326172 7.79733 2.13361 7.79733 4.36556C7.79733 4.68066 7.82578 4.987 7.88267 5.2846C5.15556 5.11392 2.73778 3.50779 1.12 1.0614C0.839111 1.65659 0.675556 2.35243 0.675556 3.09204C0.675556 4.49247 1.25511 5.73099 2.13333 6.45309C1.59644 6.43558 1.088 6.2474 0.647111 5.9498C0.647111 5.96731 0.647111 5.98482 0.647111 6.00232C0.647111 7.95856 1.77778 9.59532 3.28178 9.96293C3.008 10.0548 2.71644 10.1074 2.41422 10.1074C2.20089 10.1074 1.99822 10.0811 1.79556 10.033C2.21511 11.6347 3.42756 12.8032 4.86044 12.8382C3.73689 13.9235 2.32178 14.5669 0.782222 14.5669C0.515556 14.5669 0.256 14.5494 0 14.51C1.45422 15.661 3.17867 16.3262 5.03111 16.3262C11.0649 16.3262 14.368 10.1686 14.368 4.83383C14.368 4.65878 14.3644 4.48372 14.3573 4.30867C15.0044 3.74412 15.5591 3.03077 16 2.21676Z" fill="#777FEB"/>
</svg>
