<svg width="84" height="84" viewBox="0 0 84 84" fill="none" xmlns="http://www.w3.org/2000/svg">
<g clip-path="url(#clip0_7_40)">
<path d="M58.9201 55.5909C55.2375 51.3361 46.6137 41.3719 45.4569 35.8462C45.2777 34.9918 44.5242 34.3799 43.6514 34.3799H40.2715C39.4629 34.3799 38.7484 34.9065 38.5093 35.6791C36.827 41.1146 29.0749 50.4984 24.9102 55.5399C23.1916 57.6203 22.2451 60.2527 22.2451 62.9517V63.4785C22.2451 65.8455 22.9539 68.1271 24.2944 70.0765C24.8419 70.8722 25.4292 71.6654 25.9974 72.4324C27.1486 73.9861 28.4455 75.7391 28.7673 76.7642L26.5897 81.3668C26.3193 81.9382 26.3603 82.6083 26.6984 83.1424C27.0367 83.6766 27.6247 84.0002 28.2569 84.0002H55.743C56.3751 84.0002 56.9631 83.6765 57.3014 83.1424C57.6395 82.6083 57.6807 81.9382 57.4102 81.3668L55.1962 76.6867C55.5408 75.5759 56.9054 73.6969 58.1176 72.0293C58.6474 71.3006 59.1952 70.5468 59.7084 69.7969C61.0473 67.841 61.7549 65.561 61.7549 63.2039C61.7552 60.4069 60.7482 57.7032 58.9201 55.5909ZM31.1703 80.3109L32.156 78.2274H51.8439L52.8295 80.3109H31.1703ZM56.6642 67.713C56.1805 68.4196 55.6481 69.1518 55.1335 69.8599C53.9325 71.512 52.7816 73.0954 52.0937 74.5382H31.8249C31.1585 73.2014 30.0831 71.7499 28.9618 70.2361C28.4126 69.4945 27.8446 68.7279 27.334 67.9855C26.4182 66.6541 25.9341 65.0954 25.9341 63.4782V62.9514C25.9341 61.1078 26.5806 59.3102 27.7543 57.8892C32.0689 52.6666 39.0914 44.1652 41.5656 38.069H42.2519C44.1454 43.6678 50.2654 51.2288 56.1303 58.0051C57.3785 59.4472 58.0659 61.2934 58.0659 63.2039C58.0659 64.814 57.5811 66.3733 56.6642 67.713Z" fill="#777FEB"/>
<path d="M43.8446 57.0151V50.4398C43.8446 49.4213 43.0186 48.5952 42.0001 48.5952C40.9814 48.5952 40.1555 49.4213 40.1555 50.4398V57.0151C36.7061 57.8476 34.1349 60.958 34.1349 64.6595C34.1349 68.9963 37.6632 72.5246 42.0001 72.5246C46.3369 72.5246 49.8652 68.9963 49.8652 64.6595C49.8652 60.958 47.2942 57.8476 43.8446 57.0151ZM41.9999 68.8355C39.6973 68.8355 37.8238 66.9622 37.8238 64.6595C37.8238 62.357 39.6971 60.4836 41.9999 60.4836C44.3027 60.4836 46.176 62.3568 46.176 64.6595C46.176 66.9622 44.3028 68.8355 41.9999 68.8355Z" fill="#777FEB"/>
<path d="M43.8079 44.6746C43.784 44.5563 43.7488 44.4402 43.7027 44.3298C43.6566 44.2189 43.5994 44.112 43.5331 44.0107C43.4668 43.9111 43.3894 43.8169 43.3044 43.7321C42.8767 43.3022 42.2401 43.1068 41.6406 43.2266C41.5225 43.2506 41.4064 43.2857 41.2938 43.3318C41.1829 43.3779 41.0761 43.4351 40.9765 43.5014C40.8748 43.5697 40.7808 43.6453 40.696 43.7319C40.6111 43.8167 40.5337 43.9109 40.4673 44.0105C40.399 44.1122 40.3437 44.219 40.2976 44.3296C40.2515 44.4403 40.2146 44.5563 40.1906 44.6745C40.1667 44.7942 40.1557 44.9161 40.1557 45.0361C40.1557 45.5212 40.3529 45.9971 40.6961 46.34C40.7808 46.4252 40.8748 46.5028 40.9765 46.5689C41.0761 46.6353 41.1829 46.6924 41.2938 46.7385C41.4064 46.7846 41.5225 46.8197 41.6406 46.8437C41.7588 46.8676 41.8805 46.8806 42.0003 46.8806C42.4854 46.8806 42.9613 46.6832 43.3042 46.34C43.6473 45.9953 43.8448 45.5212 43.8448 45.0361C43.8448 44.9163 43.8319 44.7944 43.8079 44.6746Z" fill="#777FEB"/>
<path d="M41.3543 24.8495H40.7701H23.9064C21.5206 24.8495 19.5797 22.9086 19.5797 20.5228V17.3916H24.3835C25.4022 17.3916 26.2281 16.5656 26.2281 15.5471V2.25029C26.2281 1.23162 25.402 0.405731 24.3835 0.405731H11.0869C10.0682 0.405731 9.2423 1.23179 9.2423 2.25029V15.5469C9.2423 16.5656 10.0684 17.3915 11.0869 17.3915H15.8906V20.5226C15.8906 23.0023 17.0227 25.2225 18.7968 26.694C17.0227 28.1657 15.8906 30.3856 15.8906 32.8654V35.6C11.8081 36.4467 8.73059 40.0705 8.73059 44.4002C8.73059 49.3558 12.7623 53.3879 17.7183 53.3879C22.6743 53.3879 26.7056 49.3558 26.7056 44.4002C26.7056 40.0827 23.645 36.4676 19.5799 35.6079V32.8654C19.5799 30.4796 21.5208 28.5387 23.9066 28.5387H40.7703H41.3545C42.3731 28.5387 43.199 27.7127 43.199 26.6942C43.199 25.6757 42.373 24.8495 41.3543 24.8495ZM23.0164 44.4002C23.0164 47.3216 20.6396 49.6986 17.7181 49.6986C14.7966 49.6986 12.4197 47.3216 12.4197 44.4002C12.4197 41.4787 14.7966 39.1019 17.7181 39.1019C20.6396 39.1019 23.0164 41.4787 23.0164 44.4002ZM12.9314 13.7022V4.09468H22.5389V13.7022H12.9314Z" fill="#777FEB"/>
<path d="M50.1384 26.3337C50.1145 26.2156 50.0793 26.0994 50.0332 25.989C49.9871 25.8765 49.9299 25.7695 49.8636 25.6699C49.7972 25.5685 49.7197 25.4744 49.6349 25.3895C49.5501 25.3047 49.4559 25.2269 49.3545 25.1608C49.2549 25.0944 49.148 25.0373 49.0354 24.9912C48.9247 24.9451 48.8087 24.91 48.6906 24.886C48.4527 24.8381 48.2072 24.8381 47.9713 24.886C47.853 24.91 47.7369 24.9451 47.6245 24.9912C47.5136 25.0373 47.4066 25.0945 47.307 25.1608C47.2056 25.2271 47.1115 25.3047 47.0266 25.3895C46.9418 25.4744 46.8644 25.5685 46.7961 25.6699C46.7297 25.7695 46.6726 25.8765 46.6265 25.989C46.5804 26.0998 46.5453 26.2158 46.5213 26.3337C46.4974 26.452 46.4862 26.5737 46.4862 26.6933C46.4862 26.8133 46.4975 26.9352 46.5213 27.0549C46.5453 27.1711 46.5804 27.2876 46.6265 27.3998C46.6726 27.5107 46.7298 27.6175 46.7961 27.7171C46.8644 27.8188 46.9418 27.9128 47.0266 27.9976C47.1115 28.0825 47.2056 28.1599 47.307 28.2282C47.4066 28.2946 47.5136 28.3517 47.6245 28.3978C47.7369 28.4439 47.853 28.479 47.9713 28.5011C48.0894 28.5253 48.2112 28.5381 48.3308 28.5381C48.4507 28.5381 48.5726 28.5253 48.6904 28.5011C48.8087 28.4792 48.9248 28.4439 49.0353 28.3978C49.1478 28.3517 49.2548 28.2944 49.3544 28.2282C49.4557 28.1599 49.5499 28.0825 49.6347 27.9976C49.7196 27.9128 49.797 27.8187 49.8634 27.7171C49.9299 27.6175 49.987 27.5107 50.0331 27.3998C50.0792 27.2874 50.1143 27.1711 50.1382 27.0549C50.1622 26.9352 50.175 26.8133 50.175 26.6933C50.1752 26.5737 50.1624 26.4518 50.1384 26.3337Z" fill="#777FEB"/>
<path d="M72.9131 36.2677H68.1094V32.8654C68.1094 30.3857 66.9773 28.1655 65.2032 26.694C66.9773 25.2224 68.1094 23.0024 68.1094 20.5226V17.7879C72.1919 16.9411 75.2694 13.3173 75.2694 8.98769C75.2697 4.03168 71.2377 0 66.282 0C61.3263 0 57.2945 4.03168 57.2945 8.98769C57.2945 13.3052 60.3551 16.9203 64.4202 17.78V20.5228C64.4202 22.9086 62.4794 24.8494 60.0936 24.8494H56.7569H55.1889C54.1703 24.8494 53.3444 25.6755 53.3444 26.694C53.3444 27.7125 54.1704 28.5386 55.1889 28.5386H56.7569H60.0936C62.4794 28.5386 64.4202 30.4794 64.4202 32.8652V36.2676H59.6165C58.5978 36.2676 57.7719 37.0936 57.7719 38.1121V51.4088C57.7719 52.4274 58.598 53.2533 59.6165 53.2533H72.9131C73.9318 53.2533 74.7577 52.4273 74.7577 51.4088V38.1121C74.7578 37.0938 73.9319 36.2677 72.9131 36.2677ZM60.9838 8.98769C60.9838 6.06622 63.3606 3.68928 66.282 3.68928C69.2035 3.68928 71.5804 6.06622 71.5804 8.98769C71.5804 11.9092 69.2035 14.2859 66.282 14.2859C63.3606 14.2859 60.9838 11.9092 60.9838 8.98769ZM71.0686 49.5644H61.461V39.9568H71.0686V49.5644Z" fill="#777FEB"/>
</g>
<defs>
<clipPath id="clip0_7_40">
<rect width="84" height="84" fill="white"/>
</clipPath>
</defs>
</svg>
